<svg xmlns="http://www.w3.org/2000/svg" width="71.999" height="42.001" viewBox="0 0 71.999 42.001">
  <path id="Icon" d="M672,3731.8a16.194,16.194,0,0,1,4.9-11.643,12.934,12.934,0,0,1,1.27-1.117l6.054-5.181a15.886,15.886,0,0,1,8.12-2.933l3.354-3.395h.029a5.7,5.7,0,0,1,3.884-1.519,5.776,5.776,0,0,1,5.478,4.005,5.331,5.331,0,0,1,2.85-.833c.147,0,.31,0,.457.014a5.235,5.235,0,0,1,2.525.819,5.736,5.736,0,0,1,9.362-2.5h.03l3.353,3.395a15.8,15.8,0,0,1,8.12,2.933l6.054,5.181c.443.357.871.73,1.27,1.116A16.132,16.132,0,1,1,712,3733.8a8,8,0,0,1-8,0,16.053,16.053,0,0,1-32-1.995Zm45.007,0a10.957,10.957,0,1,0,10.956-11.048A11,11,0,0,0,717.007,3731.8Zm-39.9,0a10.957,10.957,0,1,0,10.956-11.048A11,11,0,0,0,677.109,3731.8Zm27.347-5.107a3.559,3.559,0,1,0,3.558-3.589A3.575,3.575,0,0,0,704.456,3726.695ZM723.991,3711.24Zm-2.864,20.546a6.869,6.869,0,0,1,6.836-6.894,1.646,1.646,0,1,1,.015,3.291,3.6,3.6,0,0,0-3.573,3.6,1.639,1.639,0,1,1-3.278,0Zm-39.9,0a6.869,6.869,0,0,1,6.836-6.894,1.646,1.646,0,1,1,.014,3.291,3.6,3.6,0,0,0-3.572,3.6,1.639,1.639,0,1,1-3.278,0Z" transform="translate(-672 -3705.999)" fill="#fff"/>
</svg>
