<svg xmlns="http://www.w3.org/2000/svg" width="40.361" height="33.629" viewBox="0 0 40.361 33.629">
  <g id="Icon" transform="translate(-939.63 -2574.9)">
    <path id="Icon-2" data-name="Icon" d="M942.646,2608.53a3.019,3.019,0,0,1-3.016-3.015,2.367,2.367,0,0,1,2.365-2.364h35.63a2.367,2.367,0,0,1,2.365,2.364,3.019,3.019,0,0,1-3.016,3.015Zm11.783-2.014c0,.371.6.672,1.346.672h8.072c.742,0,1.346-.3,1.346-.672s-.6-.672-1.346-.672h-8.072C955.032,2605.843,954.428,2606.145,954.428,2606.515Zm-8.069-6.054H942.32v-2.69h.231a4.035,4.035,0,0,1-.231-1.35v-17.48a4.045,4.045,0,0,1,4.04-4.04h26.9a4.045,4.045,0,0,1,4.04,4.04v17.48a4.017,4.017,0,0,1-.231,1.35h.231v2.689h-4.03v-21.52H946.36v21.52h0Zm10.411-2.761a1.334,1.334,0,0,1-1.258-.357l-4.736-4.757a1.35,1.35,0,0,1,0-1.9l1.894-1.9a1.335,1.335,0,0,1,1.895,0l2.482,2.494,8-8.038a1.333,1.333,0,0,1,1.894,0l1.894,1.9a1.349,1.349,0,0,1,0,1.9l-10.417,10.465a1.337,1.337,0,0,1-1.651.194Z" fill="#cacaca"/>
  </g>
</svg>
