<svg xmlns="http://www.w3.org/2000/svg" width="40.36" height="33.629" viewBox="0 0 40.36 33.629">
  <g id="Icon" transform="translate(-539.63 -2321.9)">
    <path id="Icon-2" data-name="Icon" d="M542.645,2355.53a3.019,3.019,0,0,1-3.015-3.015,2.367,2.367,0,0,1,2.364-2.365h35.631a2.367,2.367,0,0,1,2.364,2.365,3.019,3.019,0,0,1-3.015,3.015Zm11.784-2.014c0,.371.6.672,1.345.672h8.072c.742,0,1.345-.3,1.345-.672s-.6-.672-1.345-.672h-8.072C555.033,2352.843,554.429,2353.145,554.429,2353.515Zm18.841-27.575H546.36v21.52h-4.04v-2.69h.231a4.034,4.034,0,0,1-.231-1.35v-17.48a4.045,4.045,0,0,1,4.04-4.04h26.9a4.044,4.044,0,0,1,4.039,4.04v17.48a4,4,0,0,1-.231,1.35h.231v2.689H573.27Zm-16.5,18.759a1.334,1.334,0,0,1-1.257-.357l-4.736-4.757a1.35,1.35,0,0,1,0-1.9l1.895-1.9a1.334,1.334,0,0,1,1.894,0l2.483,2.494,8-8.038a1.334,1.334,0,0,1,1.894,0l1.894,1.9a1.35,1.35,0,0,1,0,1.9l-10.418,10.464a1.336,1.336,0,0,1-1.651.193Z" fill="#333"/>
  </g>
</svg>
