<svg xmlns="http://www.w3.org/2000/svg" width="138.127" height="22.781" viewBox="0 0 138.127 22.781">
  <g id="Logo" transform="translate(-373.661 -31.325)">
    <path id="Milastask" d="M480.341,53.4a2.087,2.087,0,0,1-.923-1.706,1.545,1.545,0,0,1,.448-1.125,1.482,1.482,0,0,1,1.1-.457,1.215,1.215,0,0,1,.923.361,1.36,1.36,0,0,1,.342.976,1.215,1.215,0,0,1-.342.834,1,1,0,0,1-.748.378,1.816,1.816,0,0,1-.272-.017,1.325,1.325,0,0,1-.22-.053,1.762,1.762,0,0,0,.553.439,1.4,1.4,0,0,0,.624.141q1.424,0,2.294-2.092a14.756,14.756,0,0,0,.87-5.572v-.9a15.031,15.031,0,0,0-2.285,2.021q-1.179,1.249-1.424,1.248a.292.292,0,0,1-.136-.031l-.294.295q-.9.9-1.407,1.389-.369.386-1.055,1.09Q475,54.07,473.152,54.07a2.169,2.169,0,0,1-1.564-.571,1.983,1.983,0,0,1-.6-1.5,4.7,4.7,0,0,1,.113-1.055,4.812,4.812,0,0,1,.361-1,12.584,12.584,0,0,1-2.8,3.059,4.683,4.683,0,0,1-2.751,1.037,3.088,3.088,0,0,1-2.285-.879,3.136,3.136,0,0,1-.879-2.32,5.86,5.86,0,0,1,.751-2.9q-1.168,1.2-1.831,1.867l-.282.264q-3.973,3.973-5.8,3.973a2.054,2.054,0,0,1-1.617-.651,2.6,2.6,0,0,1-.581-1.793q0-1.319,1.846-4.957.439-.844.668-1.3-.509.491-1.283,1.283-1.231,1.265-1.495,1.265a.286.286,0,0,1-.151-.04q-.693.718-1.105,1.13a28.6,28.6,0,0,1-4.921,4.174,6.749,6.749,0,0,1-3.393.958,3.648,3.648,0,0,1-2.276-.7,2.087,2.087,0,0,1-.923-1.706,1.545,1.545,0,0,1,.448-1.125,1.482,1.482,0,0,1,1.1-.457,1.211,1.211,0,0,1,.922.361,1.357,1.357,0,0,1,.343.976,1.212,1.212,0,0,1-.343.834,1,1,0,0,1-.747.378,1.817,1.817,0,0,1-.272-.017,1.358,1.358,0,0,1-.22-.053,1.776,1.776,0,0,0,.554.439,1.4,1.4,0,0,0,.624.141q1.424,0,2.294-2.092a14.774,14.774,0,0,0,.87-5.572v-.9a15.03,15.03,0,0,0-2.285,2.021q-1.179,1.249-1.424,1.248a.293.293,0,0,1-.136-.031l-.294.295q-.9.9-1.407,1.389-.369.386-1.055,1.09-3.393,3.445-5.238,3.445a2.169,2.169,0,0,1-1.564-.571,1.983,1.983,0,0,1-.6-1.5,4.643,4.643,0,0,1,.115-1.055,4.757,4.757,0,0,1,.36-1,12.584,12.584,0,0,1-2.8,3.059,4.683,4.683,0,0,1-2.751,1.037,3.087,3.087,0,0,1-2.285-.879,3.136,3.136,0,0,1-.879-2.32,5.859,5.859,0,0,1,.731-2.866l-.018.019q-.37.387-.545.563-.333.352-.949.985-4.36,4.535-6.117,4.535a2.3,2.3,0,0,1-1.732-.66,2.445,2.445,0,0,1-.642-1.784,6.9,6.9,0,0,1,.642-2.461,32.9,32.9,0,0,1,1.977-3.832q-.51.491-1.283,1.283-1.23,1.265-1.494,1.265a.3.3,0,0,1-.124-.025l-.342.359q-1.019,1.072-1.582,1.652a26.22,26.22,0,0,1-3.718,3.322,4.54,4.54,0,0,1-2.47.879,2.079,2.079,0,0,1-1.59-.607,2.372,2.372,0,0,1-.571-1.7q0-1.426,2.3-5.4.386-.649.58-1l-1.072,1.037c-.165.153-.375.357-.634.616q-.756.756-.914.756a.685.685,0,0,1-.193-.023q-.335.339-.694.708-1.091,1.143-1.706,1.759l-.07.07q-3.726,3.779-5.22,3.779a2.121,2.121,0,0,1-1.776-.914,3.88,3.88,0,0,1-.686-2.39,10.415,10.415,0,0,1,.852-3.788,39.528,39.528,0,0,1,2.892-5.493q.651-1.056,3.2-4.817,1.916-2.83,3.076-4.552a23.1,23.1,0,0,0-4.535,4.711q-2.654,3.41-6.082,8.895-1.372,2.179-2.953,5.22Q388.62,54,387.724,54a1.532,1.532,0,0,1-1.345-.914,4.82,4.82,0,0,1-.518-2.39q0-3.428,8.244-16.436l1.3-2.039a25.286,25.286,0,0,0-4.227,4.835q-2.821,3.814-6.512,9.685-.176.3-.545.862-4.059,6.468-7.014,6.468a3.456,3.456,0,0,1-2.478-.914,3.055,3.055,0,0,1-.967-2.32,3.8,3.8,0,0,1,.9-2.549,2.713,2.713,0,0,1,2.128-1.055,1.758,1.758,0,0,1,1.283.431,1.631,1.631,0,0,1,.44,1.221,1.5,1.5,0,0,1-.387,1.108,3.206,3.206,0,0,1-1.529.633,2.778,2.778,0,0,0-1.274.536,1.188,1.188,0,0,0-.413.941,1.261,1.261,0,0,0,.668.975,2.608,2.608,0,0,0,1.529.466q2.514,0,6.89-6.908,1.689-2.654,2.725-4.183a99.112,99.112,0,0,1,5.985-8.113q2.541-3.015,3.331-3.014a.445.445,0,0,1,.317.114.378.378,0,0,1,.123.29,24.692,24.692,0,0,1-1.723,4.657q-.493,1.161-.756,1.811-2.971,7-4.078,10.046a21.024,21.024,0,0,0-1.248,4.474,108.207,108.207,0,0,1,9.448-15.091q4.807-6.3,6.126-6.3a.493.493,0,0,1,.316.1.279.279,0,0,1,.123.22q0,.158-1.741,4.034t-3.27,7.814q-1.405,3.71-2.065,5.9a12.6,12.6,0,0,0-.66,3.173.452.452,0,0,0,.114.308A.32.32,0,0,0,397.2,53q.316,0,1.3-.862t3.515-3.392q2.443-2.426,3.762-3.516A9.29,9.29,0,0,1,406.9,44.4q.775-.795,1.272-1.408l3.744-.264-3.639,6.662q-.826,1.512-1.257,2.408a4,4,0,0,0-.43,1.125.3.3,0,0,0,.316.317,3.809,3.809,0,0,0,1.732-.993,37.468,37.468,0,0,0,3.1-2.892q3.235-3.271,4.413-4.245.171-.142.329-.264.589-.628,1.086-1.239.527-.651.9-1.2l5.7-9.3,3.445-.386-7.7,14.185q-.491.9-1.319,2.391a13.989,13.989,0,0,0-1.634,3.41.463.463,0,0,0,.149.352.553.553,0,0,0,.4.14q.737,0,4.482-3.727l1.319-1.319q2.214-2.179,3.366-3.1a3.51,3.51,0,0,1,1.626-.923.873.873,0,0,1,.135.02,12.514,12.514,0,0,1,1.472-.785,6.556,6.556,0,0,1,2.637-.642,3.107,3.107,0,0,1,1.855.5,2.288,2.288,0,0,1,.887,1.485L436.142,43l3.515-.264-3.691,7.594q-.458.914-.739,1.546a3.33,3.33,0,0,0-.281.756.5.5,0,0,0,.114.343.365.365,0,0,0,.29.132q.51,0,3.709-3.182.809-.791,1.248-1.247,2.426-2.391,3.709-3.428a9.755,9.755,0,0,1,.943-.687,14.49,14.49,0,0,0,1.544-1.6q.123-.193.317-.545.4-.721.738-.721a.416.416,0,0,1,.29.123.359.359,0,0,1,.132.264q0,.14-.466.659a1.465,1.465,0,0,0-.465.887,6.088,6.088,0,0,0,.993,1.811,5.675,5.675,0,0,1,.994,3.2,3.767,3.767,0,0,1-.291,1.5,5.551,5.551,0,0,1-.975,1.451q2.214-1.74,5.212-4.6a24.386,24.386,0,0,1,2.89-2.468,22.5,22.5,0,0,0,2.77-3.8q.176-.281.247-.4l4.078-6.733,3.621-.14L463.9,38.056h2.514l-.211.826h-2.918L459.028,46.2a47.51,47.51,0,0,0-2.241,4.245,8.157,8.157,0,0,0-.853,2.452.269.269,0,0,0,.123.229.526.526,0,0,0,.317.088,3.533,3.533,0,0,0,1.582-.923q1.142-.922,3.462-3.172l.4-.422q4.676-4.552,5.52-4.552a.964.964,0,0,1,.149.023,12.522,12.522,0,0,1,1.477-.788,6.556,6.556,0,0,1,2.637-.642,3.109,3.109,0,0,1,1.855.5,2.288,2.288,0,0,1,.887,1.485L475.208,43l3.515-.264-3.691,7.594q-.458.914-.739,1.546a3.33,3.33,0,0,0-.281.756.5.5,0,0,0,.114.343.366.366,0,0,0,.29.132q.51,0,3.709-3.182.809-.791,1.248-1.247,2.426-2.391,3.709-3.428a9.755,9.755,0,0,1,.943-.687,14.5,14.5,0,0,0,1.544-1.6q.123-.193.317-.545.4-.721.738-.721a.42.42,0,0,1,.291.123.361.361,0,0,1,.131.264q0,.14-.466.659a1.465,1.465,0,0,0-.465.887,6.112,6.112,0,0,0,.993,1.811,5.674,5.674,0,0,1,.994,3.2,3.782,3.782,0,0,1-.29,1.5,5.578,5.578,0,0,1-.976,1.451q2.214-1.74,5.212-4.6,1.314-1.253,2.2-1.956l.105-.109a11.863,11.863,0,0,0,1.02-1.152,7.033,7.033,0,0,0,.58-.835l5.431-9.86,3.375-.352L493.717,53.824l-3.5.247,4.746-8.736q-.509.491-1.283,1.283-1.231,1.265-1.494,1.265a.288.288,0,0,1-.152-.04q-.693.718-1.105,1.13a28.6,28.6,0,0,1-4.921,4.174,6.749,6.749,0,0,1-3.393.958A3.648,3.648,0,0,1,480.341,53.4Zm-9.686-8.93a21.92,21.92,0,0,0-2.443,2.936,29.949,29.949,0,0,0-2.18,3.348,4.794,4.794,0,0,0-.686,2.065.767.767,0,0,0,.167.545.737.737,0,0,0,.553.175,3.525,3.525,0,0,0,1.916-.808,13.807,13.807,0,0,0,2.355-2.25,26.179,26.179,0,0,0,2.479-3.332,5.105,5.105,0,0,0,.913-2.188,1.422,1.422,0,0,0-.4-1.038,1.354,1.354,0,0,0-1.011-.4A2.778,2.778,0,0,0,470.655,44.473Zm-39.066,0a21.918,21.918,0,0,0-2.443,2.936,30.078,30.078,0,0,0-2.18,3.348,4.794,4.794,0,0,0-.686,2.065.767.767,0,0,0,.167.545.737.737,0,0,0,.553.175,3.525,3.525,0,0,0,1.916-.808,13.807,13.807,0,0,0,2.355-2.25,26.173,26.173,0,0,0,2.479-3.332,5.1,5.1,0,0,0,.914-2.188,1.422,1.422,0,0,0-.4-1.038,1.354,1.354,0,0,0-1.011-.4A2.778,2.778,0,0,0,431.589,44.473Zm67.138,9.087a1.907,1.907,0,0,1-.474-1.353,5.447,5.447,0,0,1,.861-2.506,6.557,6.557,0,0,0,.861-1.854.308.308,0,0,0-.123-.255.5.5,0,0,0-.317-.1,3.485,3.485,0,0,0-.729.123,3.493,3.493,0,0,1-.747.123.376.376,0,0,1-.273-.114.392.392,0,0,1-.114-.29q0-.387.967-.457a2.832,2.832,0,0,0,1.319-.317,8.428,8.428,0,0,0,1.591-2.066q1.1-1.731,2.381-1.732a2.019,2.019,0,0,1,1.424.519,1.683,1.683,0,0,1,.563,1.292,1.415,1.415,0,0,1-1.476,1.477,1.349,1.349,0,0,1-.985-.378,1.282,1.282,0,0,1-.387-.958,1.251,1.251,0,0,1,.106-.518,1.056,1.056,0,0,1,.334-.413.2.2,0,0,0-.114-.061,1.917,1.917,0,0,0-.22-.009q-.352,0-1.213,1.424a5.226,5.226,0,0,1-1.741,1.916,2.366,2.366,0,0,1,1.556.729,2.243,2.243,0,0,1,.571,1.574,5.965,5.965,0,0,1-.527,2.3,1.623,1.623,0,0,0-.158.44.184.184,0,0,0,.079.149.35.35,0,0,0,.22.061q.281,0,2.056-1.828.914-.931,1.459-1.477,2.724-2.707,4.052-3.788a4.052,4.052,0,0,1,1.855-1.081,1.58,1.58,0,0,1,.264.052.691.691,0,0,0,.14.018,12.693,12.693,0,0,0-2.215,1.7q-1.3,1.187-3.692,3.736-.246.281-.721.773-3.393,3.657-5.185,3.657A1.626,1.626,0,0,1,498.727,53.56Zm-88.31-13.4a1.4,1.4,0,0,1-.4-1.064,1.694,1.694,0,0,1,.607-1.265,1.952,1.952,0,0,1,1.363-.562,1.431,1.431,0,0,1,1.046.387,1.361,1.361,0,0,1,.4,1.02,1.775,1.775,0,0,1-.562,1.309,1.835,1.835,0,0,1-1.336.554A1.55,1.55,0,0,1,410.417,40.157Z" fill="#fff"/>
  </g>
</svg>
